<?xml version="1.0" encoding="utf-8"?>
<!-- Generator: Adobe Illustrator 24.0.2, SVG Export Plug-In . SVG Version: 6.00 Build 0)  -->
<svg version="1.1" id="Ebene_1" xmlns="http://www.w3.org/2000/svg" xmlns:xlink="http://www.w3.org/1999/xlink" x="0px" y="0px"
	 viewBox="0 0 206 55" style="enable-background:new 0 0 206 55;" xml:space="preserve">
<style type="text/css">
	.st0{fill:#932B41;}
</style>
<g>
	<g>
		<g>
			<path class="st0" d="M60.7,33.3H58v-13h2.7c3.3,0,5.3,2.4,5.3,6.5C65.9,30.9,64,33.3,60.7,33.3 M60.7,18.2h-5v17.2h5
				c4.7,0,7.6-3.3,7.6-8.6C68.3,21.6,65.3,18.2,60.7,18.2"/>
		</g>
		<polygon class="st0" points="73,18.2 73,35.4 82.9,35.4 82.9,33.3 75.3,33.3 75.3,27.6 82.3,27.6 82.3,25.5 75.3,25.5 75.3,20.3 
			82.9,20.3 82.9,18.2 		"/>
		<polygon class="st0" points="96.9,18.2 96.9,30.7 89.4,18.2 87.1,18.2 87.1,35.4 89.4,35.4 89.4,22.9 97,35.4 99.3,35.4 
			99.3,18.2 		"/>
		<polygon class="st0" points="102.3,18.2 102.3,20.3 107.5,20.3 107.5,35.4 109.8,35.4 109.8,20.3 115,20.3 115,18.2 		"/>
		<path class="st0" d="M122.2,21.8l2.5,7h-5L122.2,21.8z M121.1,18.2L115,35.4h2.4l1.6-4.5h6.4l1.6,4.5h2.4l-6.2-17.2H121.1z"/>
		<g>
			<path class="st0" d="M135.6,20.3h3.9c1.9,0,3,1.4,3,3.7c0,2.4-1.1,3.7-3,3.7h-3.9V20.3z M139.6,18.2h-6.3v17.2h2.3v-5.6h4
				c3.2,0,5.2-2.3,5.2-5.9C144.9,20.5,142.8,18.2,139.6,18.2"/>
			<path class="st0" d="M151.9,20.3h3.9c1.8,0,2.8,1.3,2.8,3.5c0,2.2-1,3.5-2.8,3.5h-3.9V20.3z M160.9,23.7c0-3.4-2-5.6-5-5.6h-6.3
				v17.2h2.3v-6.1h3.4l3.8,6.1h2.7l-4.1-6.4C159.7,28.3,160.9,26.4,160.9,23.7"/>
		</g>
		<rect x="166" y="18.2" class="st0" width="2.3" height="17.2"/>
		<polygon class="st0" points="186.1,18.2 181,31.5 176,18.2 173.5,18.2 173.5,35.4 175.8,35.4 175.8,24 180.1,35.4 182,35.4 
			186.2,24 186.2,35.4 188.6,35.4 188.6,18.2 		"/>
		<polygon class="st0" points="193.9,18.2 193.9,35.4 203.8,35.4 203.8,33.3 196.3,33.3 196.3,27.6 203.2,27.6 203.2,25.5 
			196.3,25.5 196.3,20.3 203.8,20.3 203.8,18.2 		"/>
	</g>
	<path class="st0" d="M44.3,9.4h-38c-3.2,0-5.7,2.4-5.7,5.4v24.3c0,3,2.6,5.4,5.7,5.4h38c3.2,0,5.7-2.4,5.7-5.4V14.8
		C50,11.8,47.5,9.4,44.3,9.4z M44.4,30.5c0,2.3-0.9,4.4-2.6,6c-1.6,1.5-3.8,2.4-6.1,2.4c0,0,0,0,0,0c-7.8,0-23.1,0-27.5,0
		c0,0,0,0,0,0c-0.5,0-1.1-0.2-1.5-0.6c-0.4-0.4-0.6-0.9-0.6-1.5v-1.6c0-1.1,0.9-2.1,2.1-2.1l5.8,0c0.1,0,0.2-0.1,0.2-0.2l0-7
		c0-0.7,0.3-1.4,0.8-1.9c0.5-0.5,1.2-0.8,1.9-0.8h0.3c1.5,0,2.8,1.2,2.8,2.8v7c0,0,0,0.1,0.1,0.1c0,0,0.1,0.1,0.1,0.1l15,0
		c1.9,0,3.4-1.5,3.4-3.4l0-5.6c0-0.9-0.3-1.8-1-2.4c-0.6-0.6-1.5-1-2.4-1l-28.1,0c-0.5,0-0.9-0.4-0.9-0.9c0-0.5,0.4-0.9,0.9-0.9
		l28.1,0c1.4,0,2.7,0.6,3.7,1.6c1,1,1.5,2.3,1.5,3.7l0,5.6c0,2.9-2.4,5.2-5.3,5.2l-15,0c0,0,0,0,0,0c-0.5,0-1.1-0.2-1.4-0.6
		c-0.4-0.4-0.6-0.9-0.6-1.5l0-7c0-0.5-0.4-0.9-0.9-0.9H17c-0.2,0-0.5,0.1-0.6,0.3c-0.2,0.2-0.3,0.4-0.3,0.6l0,7
		c0,1.1-0.9,2.1-2.1,2.1l-5.8,0c-0.1,0-0.2,0.1-0.2,0.2v1.6c0,0.1,0,0.1,0.1,0.1c0,0,0.1,0.1,0.1,0.1c4.4,0,19.7,0,27.5,0
		c0,0,0,0,0,0c1.8,0,3.5-0.7,4.8-1.9c1.3-1.2,2-2.8,2-4.6v-7.3c0-3.6-2.8-6.3-6.3-6.3H7c-0.5,0-0.9-0.4-0.9-0.9
		C6.1,15.4,6.5,15,7,15h29.2c4.6,0,8.2,3.6,8.2,8.2V30.5z"/>
</g>
</svg>
